<svg xmlns="http://www.w3.org/2000/svg" width="15.202" height="14.297" viewBox="0 0 15.202 14.297">
  <path id="angles-right" d="M48.047,77.59l4.943,5.56-4.939,5.524a.97.97,0,0,0-.249.65,1.082,1.082,0,0,0,.288.726.974.974,0,0,0,1.376-.076L54.954,83.8a.971.971,0,0,0,0-1.3l-5.487-6.174a.972.972,0,0,0-1.376-.076A.96.96,0,0,0,48.047,77.59Zm-.82,6.21a.971.971,0,0,0,0-1.3L41.7,76.326a.974.974,0,0,0-1.376-.076.932.932,0,0,0-.076,1.34l4.942,5.56-4.939,5.524a.97.97,0,0,0-.249.65,1.082,1.082,0,0,0,.288.726.974.974,0,0,0,1.376-.076Z" transform="translate(-40.002 -76.002)" fill="#00b9bd"/>
</svg>
