<svg xmlns="http://www.w3.org/2000/svg" width="157.252" height="28.763" viewBox="0 0 157.252 28.763">
  <g id="Group_20982" data-name="Group 20982" transform="translate(-24 -143)">
    <g id="logo" transform="translate(24 143)">
      <g id="Group_17156" data-name="Group 17156" transform="translate(34.964 8.692)">
        <g id="Group_17155" data-name="Group 17155">
          <g id="Group_17152" data-name="Group 17152" transform="translate(0 0.686)">
            <path id="Path_8404" data-name="Path 8404" d="M136.476,50.9a13.075,13.075,0,0,0-4.975.972l-.286.114.114.257c.029.029.086.229.372,1.029.229.658.372,1.029.372,1.058l.086.286.286-.114a10.9,10.9,0,0,1,3.717-.858,1.911,1.911,0,0,1,1.43.457,2.1,2.1,0,0,1,.457,1.487v.429c-.172.029-.343.029-.572.057q-.515.043-.944.086t-.772.086A8.4,8.4,0,0,0,131.7,57.5a3.634,3.634,0,0,0-1.4,3.145,3.919,3.919,0,0,0,1.172,3.031,4.466,4.466,0,0,0,3.059,1.058,5.148,5.148,0,0,0,2.316-.457,8.35,8.35,0,0,0,1.6-1.086c.029.086.057.2.114.343.229.658.257.743.257.743l.057.2h2.745V55.9a5.031,5.031,0,0,0-1.258-3.8A5.276,5.276,0,0,0,136.476,50.9Zm1.6,7.52v2.087a3.074,3.074,0,0,1-.972,1.058,2.922,2.922,0,0,1-1.687.457,1.651,1.651,0,0,1-1.172-.372,1.3,1.3,0,0,1-.372-1.029,1.544,1.544,0,0,1,.715-1.458,6.46,6.46,0,0,1,2.545-.658,6,6,0,0,0,.629-.057C137.905,58.448,137.991,58.42,138.077,58.42Z" transform="translate(-130.3 -50.9)" fill="#fff"/>
            <path id="Path_8405" data-name="Path 8405" d="M181.89,56.432c-.086-.029-.229-.086-.4-.143-.2-.086-.286-.086-.315-.114a9.484,9.484,0,0,1-1.858-.829.745.745,0,0,1-.372-.686.717.717,0,0,1,.372-.686,2.552,2.552,0,0,1,1.287-.257,8,8,0,0,1,3.345.829l.286.143.944-2.63-.229-.114a9.785,9.785,0,0,0-4.4-.944,6.247,6.247,0,0,0-3.66.972,3.343,3.343,0,0,0-1.372,2.888,3.434,3.434,0,0,0,.858,2.459,7.168,7.168,0,0,0,2.63,1.6c.114.029.315.114.658.229a10.605,10.605,0,0,1,1.944.915.9.9,0,0,1,.4.8.962.962,0,0,1-.457.886,2.425,2.425,0,0,1-1.4.315,8.411,8.411,0,0,1-2.087-.315,8.726,8.726,0,0,1-1.887-.715l-.372-.2-.4,2.859.172.086a9.431,9.431,0,0,0,4.632,1,5.937,5.937,0,0,0,3.831-1.115,3.875,3.875,0,0,0,1.4-3.174,3.571,3.571,0,0,0-.886-2.487A7.028,7.028,0,0,0,181.89,56.432Z" transform="translate(-162.505 -50.971)" fill="#fff"/>
            <path id="Path_8406" data-name="Path 8406" d="M225.293,51.815h0a4.85,4.85,0,0,0-2.916-.915,5.252,5.252,0,0,0-2.43.572,4.71,4.71,0,0,0-1.372,1.115l-.257-1.372H215.2V69.771l3.6-.172V64.538c0-.086,0-.286-.057-1.115a5.657,5.657,0,0,0,1.172.8,5.107,5.107,0,0,0,2.316.515,4.874,4.874,0,0,0,4.089-1.973,8.039,8.039,0,0,0,1.487-4.975,9.029,9.029,0,0,0-.629-3.488A5.565,5.565,0,0,0,225.293,51.815Zm-1.058,5.947a5.47,5.47,0,0,1-.743,3.088h0a2.127,2.127,0,0,1-1.887,1,2.35,2.35,0,0,1-2.087-.972,5.844,5.844,0,0,1-.715-3.288c.029-2.573.915-3.8,2.745-3.8a2.2,2.2,0,0,1,1.944.972A4.982,4.982,0,0,1,224.235,57.762Z" transform="translate(-190.925 -50.9)" fill="#fff"/>
            <path id="Path_8407" data-name="Path 8407" d="M268.49,50.9h0a6.029,6.029,0,0,0-4.6,1.887,7.207,7.207,0,0,0-1.687,5,7.04,7.04,0,0,0,1.773,5.061,6.6,6.6,0,0,0,4.975,1.858,8.625,8.625,0,0,0,4.689-1.229l.172-.114-.543-2.716-.343.2a7.844,7.844,0,0,1-3.86,1.058,3.061,3.061,0,0,1-2.345-.886,3.7,3.7,0,0,1-.886-2.287h8.435V57.19a6.713,6.713,0,0,0-1.515-4.546A5.39,5.39,0,0,0,268.49,50.9Zm2.373,5.375h-4.946a3.291,3.291,0,0,1,.8-1.916,2.371,2.371,0,0,1,1.773-.715,2.117,2.117,0,0,1,1.744.743A2.973,2.973,0,0,1,270.863,56.275Z" transform="translate(-224.487 -50.9)" fill="#fff"/>
            <path id="Path_8408" data-name="Path 8408" d="M320.322,52.272h0a4.446,4.446,0,0,0-3.545-1.372,6.136,6.136,0,0,0-4.146,1.658l-.286-1.344H309.4V64.481H313V58.019a12.628,12.628,0,0,1,.2-2.688,2.64,2.64,0,0,1,1.058-1.115,3.019,3.019,0,0,1,1.658-.457,1.658,1.658,0,0,1,1.515.629,4.121,4.121,0,0,1,.458,2.144v7.949h3.6v-8.32A5.847,5.847,0,0,0,320.322,52.272Z" transform="translate(-258.192 -50.9)" fill="#fff"/>
          </g>
          <g id="Group_17153" data-name="Group 17153" transform="translate(64.789 1.315)">
            <path id="Path_8409" data-name="Path 8409" d="M359.731,71.856l-.172-1.744H361.9a9.874,9.874,0,0,0,1.716-.143,3.294,3.294,0,0,0,1.2-.457,3.1,3.1,0,0,0,.772-.715,2.95,2.95,0,0,0,.457-1,6.126,6.126,0,0,0,.2-1.229c.029-.4.057-.886.057-1.487V63.965a5.458,5.458,0,0,1-1.6,1.544,4.342,4.342,0,0,1-2.316.543,5.092,5.092,0,0,1-2-.372,4.8,4.8,0,0,1-1.544-1,6.255,6.255,0,0,1-1.086-1.458,7.637,7.637,0,0,1-.658-1.687,7.331,7.331,0,0,1-.2-1.773,9.328,9.328,0,0,1,.343-2.573,7.586,7.586,0,0,1,1-2.116,4.687,4.687,0,0,1,1.773-1.458A5.775,5.775,0,0,1,362.5,53.1a4.771,4.771,0,0,1,2.173.486,4.5,4.5,0,0,1,1.658,1.487V53.386h1.887V65.137c0,.543,0,1-.029,1.43a8.5,8.5,0,0,1-.2,1.344,5.869,5.869,0,0,1-.429,1.258,4.777,4.777,0,0,1-.743,1.058,3.348,3.348,0,0,1-1.144.858,6.63,6.63,0,0,1-1.658.543,10.6,10.6,0,0,1-2.23.2h-2.059Zm2.974-7.434a3.993,3.993,0,0,0,1.716-.343,2.553,2.553,0,0,0,1.144-.972,4.309,4.309,0,0,0,.629-1.372,6.062,6.062,0,0,0,.2-1.63v-.944a6.567,6.567,0,0,0-.2-1.716,4.779,4.779,0,0,0-.629-1.4,3.151,3.151,0,0,0-1.144-.972,3.861,3.861,0,0,0-1.687-.343,3.509,3.509,0,0,0-1.458.315,3.074,3.074,0,0,0-1.086.8,4.568,4.568,0,0,0-.715,1.144,5.886,5.886,0,0,0-.429,1.315,7.109,7.109,0,0,0-.114,1.344,6.618,6.618,0,0,0,.143,1.315,5.668,5.668,0,0,0,.429,1.287,4.214,4.214,0,0,0,.715,1.087,2.835,2.835,0,0,0,1.058.743A3.1,3.1,0,0,0,362.7,64.422Z" transform="translate(-356.9 -53.1)" fill="#fff"/>
            <path id="Path_8410" data-name="Path 8410" d="M409.875,53.7a9.3,9.3,0,0,1,.944.057l-.057,1.773a5.731,5.731,0,0,0-.915-.086,3.393,3.393,0,0,0-2.63,1.115,3.968,3.968,0,0,0-1,2.8v7.119H404.3V53.814h1.6l.172,2.287a5.462,5.462,0,0,1,1.687-1.744A3.705,3.705,0,0,1,409.875,53.7Z" transform="translate(-390.747 -53.528)" fill="#fff"/>
            <path id="Path_8411" data-name="Path 8411" d="M439.651,59.8a7.02,7.02,0,0,1-1.573,4.775,5.942,5.942,0,0,1-8.606-.029A6.994,6.994,0,0,1,427.9,59.8a6.97,6.97,0,0,1,1.573-4.775,5.436,5.436,0,0,1,4.346-1.83,5.259,5.259,0,0,1,4.26,1.83A7.02,7.02,0,0,1,439.651,59.8Zm-9.75.029a5.92,5.92,0,0,0,1,3.6,3.341,3.341,0,0,0,2.916,1.344,3.3,3.3,0,0,0,2.859-1.344,6.276,6.276,0,0,0,.972-3.631,6.249,6.249,0,0,0-.944-3.66,3.78,3.78,0,0,0-5.8.029A6.1,6.1,0,0,0,429.9,59.833Z" transform="translate(-407.6 -53.171)" fill="#fff"/>
            <path id="Path_8412" data-name="Path 8412" d="M473.518,66.695,468.6,54.029h2.059l2.8,7.52,1.144,3.2c.257-.829.629-1.887,1.087-3.2.572-1.63,1.487-4.146,2.716-7.548h2.059l-4.889,12.666h-2.059Z" transform="translate(-436.663 -53.743)" fill="#fff"/>
            <path id="Path_8413" data-name="Path 8413" d="M515.947,66.481a5.563,5.563,0,0,1-4.346-1.744,6.911,6.911,0,0,1-1.6-4.8,7.153,7.153,0,0,1,1.544-4.775,5.105,5.105,0,0,1,4.032-1.858,4.718,4.718,0,0,1,3.745,1.6,6.462,6.462,0,0,1,1.372,4.317v1.058H512a5.087,5.087,0,0,0,1.115,3.374,3.712,3.712,0,0,0,2.916,1.2,8.5,8.5,0,0,0,4.031-1.058l.315,1.573A9.1,9.1,0,0,1,515.947,66.481Zm1.944-10.608a2.836,2.836,0,0,0-2.316-1,3.006,3.006,0,0,0-2.4,1.058,4.624,4.624,0,0,0-1.087,2.859h6.691A4.489,4.489,0,0,0,517.891,55.873Z" transform="translate(-466.226 -53.243)" fill="#fff"/>
          </g>
          <g id="Group_17154" data-name="Group 17154" transform="translate(119.457)">
            <path id="Path_8414" data-name="Path 8414" d="M550.931,49.872a1.415,1.415,0,0,1-2.831,0,1.386,1.386,0,0,1,1.43-1.372A1.362,1.362,0,0,1,550.931,49.872Zm-2.488,0a1.075,1.075,0,0,0,1.087,1.115,1.1,1.1,0,1,0-1.087-1.115Zm.858.715h-.315V49.215a2.793,2.793,0,0,1,.543-.029.715.715,0,0,1,.486.114.369.369,0,0,1,.143.315.359.359,0,0,1-.286.315v.029c.143.057.2.143.257.343.029.2.057.286.114.343H549.9c-.029-.057-.057-.172-.114-.343a.26.26,0,0,0-.286-.229h-.143v.515Zm0-.772h.143c.172,0,.315-.057.315-.2,0-.114-.086-.2-.286-.2-.086,0-.143,0-.171.029Z" transform="translate(-548.1 -48.5)" fill="#fff"/>
          </g>
        </g>
      </g>
      <g id="Group_17159" data-name="Group 17159" transform="translate(0 0)">
        <g id="Group_17157" data-name="Group 17157" transform="translate(14.921)">
          <path id="Path_8415" data-name="Path 8415" d="M63.431,21.274A41.351,41.351,0,0,0,60.2,18.1l.429,20.214,9.35-4.6.343.629-9.693,5.175.114,5.461c.029.829,0,1.458,0,1.458H66.49a8.625,8.625,0,0,0,6.09-2.516C78.413,38.143,68.349,26.42,63.431,21.274Z" transform="translate(-60.2 -18.1)" fill="#fff"/>
        </g>
        <g id="Group_17158" data-name="Group 17158" transform="translate(0 0)">
          <path id="Path_8416" data-name="Path 8416" d="M21.648,42.575,12.07,37.428l.343-.629,9.292,4.575.229-10.236-4.66-2.516.343-.629,4.346,2.144L22.22,18.1c-.143,0-2.116,2.03-3.231,3.174-4.975,5.147-15.011,16.9-9.235,22.673a8.556,8.556,0,0,0,6.09,2.516h5.747V45.005Z" transform="translate(-8.013 -18.1)" fill="#fff"/>
        </g>
      </g>
    </g>
  </g>
</svg>
