<svg id="bord-bia-logo-green" xmlns="http://www.w3.org/2000/svg" width="169.641" height="50.415" viewBox="0 0 169.641 50.415">
  <path id="Path_11048" data-name="Path 11048" d="M22.483,19.023c0,6.61-6.376,7.547-12.269,7.547a47.835,47.835,0,0,1-7.429-.545V4.837c-.86.133-1.684.272-2.506.438C-.209,3.965-.086,1.514.88.727A53.928,53.928,0,0,1,9.8,0C16.21,0,21.206,1.686,21.206,6.972c0,2.971-1.263,4.962-4.441,5.94C20.4,13.353,22.483,15.248,22.483,19.023ZM5.963,4.5c1.3.038,2.3,1.149,2.3,3.737v2.949h2.163c3.9,0,5.38-1,5.38-3.562,0-2.4-2.087-3.268-6.318-3.268C8.317,4.368,7.138,4.407,5.963,4.5Zm5.292,10.842c3.551,0,5.714.384,5.714,3.352,0,2.933-2.125,3.756-5.644,3.756a19.973,19.973,0,0,1-3.064-.229V15.382C9.266,15.363,10.491,15.344,11.255,15.344Z" transform="translate(0 0)" fill="#fff" fill-rule="evenodd"/>
  <path id="Path_11049" data-name="Path 11049" d="M40.048,0C33.806,0,27.775,3.627,27.775,13.62s6.048,13.631,12.273,13.631S52.3,23.641,52.3,13.634,46.289,0,40.048,0Zm0,4.586c4.879,0,6.378,3.932,6.378,9.034s-1.483,9.034-6.378,9.034-6.394-3.932-6.394-9.034S35.169,4.586,40.048,4.586Z" transform="translate(-1.886 0)" fill="#fff" fill-rule="evenodd"/>
  <path id="Path_11050" data-name="Path 11050" d="M75.772,26.564c1.251,0,2.668-.305,2.992-.8-1.969-3.469-3.653-6.5-5.423-9.926,2.769-1.4,4.4-3.8,4.4-7.629,0-6.133-5.2-8.2-12.454-8.2a44.079,44.079,0,0,0-8.132.728c-.955.787-1.088,3.24-.593,4.561l.527-.093c.668-.118,1.335-.236,1.981-.327V26.218a8.736,8.736,0,0,0,2.736.343,9.285,9.285,0,0,0,2.736-.343V17.534a36.312,36.312,0,0,0,3.979-.305,85.382,85.382,0,0,0,4.4,8.992A9.229,9.229,0,0,0,75.772,26.564ZM64.531,13.4V7.916c0-2.223-.919-3.278-2.067-3.43.976-.076,1.912-.114,2.812-.114,4.553,0,7.213.785,7.213,4.158C72.489,12.308,70.118,13.207,64.531,13.4Z" transform="translate(-3.822 0)" fill="#fff" fill-rule="evenodd"/>
  <path id="Path_11051" data-name="Path 11051" d="M92.639,26.57c9.139,0,14.481-4.471,14.481-14C107.12,3.407,101.146,0,92.132,0a57.37,57.37,0,0,0-8.657.708c-.969.805-1.089,3.255-.6,4.762.664-.105,1.319-.2,1.953-.286l.555-.078V26.058A49.147,49.147,0,0,0,92.639,26.57ZM92.315,4.631c6.073,0,9.406,1.818,9.406,8.384,0,6.106-2.549,9.342-8.295,9.342a15.8,15.8,0,0,1-2.568-.191V7.905c0-1.723-.556-2.738-1.34-3.178C90.515,4.67,91.432,4.631,92.315,4.631Z" transform="translate(-5.609 0)" fill="#fff" fill-rule="evenodd"/>
  <path id="Path_11052" data-name="Path 11052" d="M167.781.492A8.323,8.323,0,0,0,164.664,0a8.973,8.973,0,0,0-3.2.492c.547.9,1.039,1.828,1.521,2.778-1.155.495-2.369,1.942-3.639,5.41-1.867,4.985-3.754,10.676-5.473,17.087.366.541,2.137.741,3.369.741a5.374,5.374,0,0,0,2.022-.322c.386-1.623.789-3.178,1.193-4.739h10.356c.481,1.561.963,3.14,1.425,4.739a5.381,5.381,0,0,0,2.023.322c1.231,0,3.01-.189,3.369-.741-2.663-8.664-6.2-18.653-9.862-25.274ZM139,7.095c0,2.951-1.269,4.928-4.466,5.9,3.645.438,5.746,2.321,5.758,6.08,0,6.565-6.412,7.5-12.339,7.5a48.71,48.71,0,0,1-7.471-.541V4.985c-.864.133-1.7.265-2.519.435-.5-1.312-.367-3.746.6-4.528a54.885,54.885,0,0,1,8.97-.722C133.977.17,139,1.845,139,7.095Zm-11.78-2.586c-1.174,0-2.368.038-3.542.133h-.013c1.308.038,2.31,1.144,2.323,3.711v2.94h2.176c3.927,0,5.411-.99,5.411-3.538C133.575,5.364,131.476,4.509,127.221,4.509Zm1.841,17.96a20.325,20.325,0,0,1-3.081-.227V15.447c1.021-.019,2.252-.038,3.01-.038,3.558,0,5.746.381,5.746,3.33S132.6,22.469,129.062,22.469ZM144.52,26.2V.7h-.006a12.293,12.293,0,0,1,5.772,0V26.2a12.362,12.362,0,0,1-5.766,0ZM165.3,6.759c-1.407,3.595-2.6,7.038-3.64,10.5h7.777A109.992,109.992,0,0,0,165.3,6.759Z" transform="translate(-7.991 0)" fill="#fff" fill-rule="evenodd"/>
  <path id="Path_11053" data-name="Path 11053" d="M2.924,52.254V39.633a2.665,2.665,0,0,1,1.015-.161,2.727,2.727,0,0,1,1.029.161V52.254a2.731,2.731,0,0,1-1.029.158A2.682,2.682,0,0,1,2.924,52.254Z" transform="translate(-0.199 -2.68)" fill="#fff"/>
  <path id="Path_11054" data-name="Path 11054" d="M17.771,43.193a3.644,3.644,0,0,1-2.493,3.685c.959,1.8,1.891,3.416,3.031,5.245a1.868,1.868,0,0,1-1.186.288,3.928,3.928,0,0,1-1.132-.12,49.823,49.823,0,0,1-2.584-4.962,12.936,12.936,0,0,1-1.7.1c-.286,0-.594-.008-.9-.027v4.844A2.828,2.828,0,0,1,9.79,52.4a2.8,2.8,0,0,1-1.019-.158V39.695A24.735,24.735,0,0,1,12.2,39.47C15.634,39.47,17.771,40.413,17.771,43.193Zm-6.965,2.7c.337.027.657.027.94.027,2.87,0,4.039-.793,4.036-2.566,0-1.549-.872-2.275-3.362-2.275a11.516,11.516,0,0,0-1.613.093Z" transform="translate(-0.596 -2.68)" fill="#fff" fill-rule="evenodd"/>
  <path id="Path_11055" data-name="Path 11055" d="M165.41,43.193a3.646,3.646,0,0,1-2.49,3.685c.959,1.8,1.887,3.416,3.036,5.245a1.871,1.871,0,0,1-1.188.288,3.925,3.925,0,0,1-1.132-.12,49.089,49.089,0,0,1-2.571-4.962,12.973,12.973,0,0,1-1.714.1c-.286,0-.592-.008-.9-.027v4.844a3.362,3.362,0,0,1-2.034,0V39.695a24.662,24.662,0,0,1,3.428-.224C163.277,39.47,165.41,40.413,165.41,43.193Zm-6.955,2.7c.337.027.656.027.939.027,2.865,0,4.031-.793,4.034-2.566,0-1.549-.869-2.275-3.361-2.275a11.526,11.526,0,0,0-1.612.093Z" transform="translate(-10.622 -2.68)" fill="#fff" fill-rule="evenodd"/>
  <path id="Path_11056" data-name="Path 11056" d="M21.2,52.256V39.631a3.32,3.32,0,0,1,2.044,0V52.256a3.374,3.374,0,0,1-2.044,0Z" transform="translate(-1.439 -2.68)" fill="#fff"/>
  <path id="Path_11057" data-name="Path 11057" d="M27.047,52.03a2.3,2.3,0,0,1,.585-1.659,6.072,6.072,0,0,0,3.276,1.062c1.541,0,2.391-.647,2.391-1.961,0-1.062-.685-1.659-2.412-2.367l-.476-.194c-2-.83-3.249-1.767-3.249-3.847,0-2.212,1.44-3.595,4.28-3.595a7.322,7.322,0,0,1,3.334.771,2.491,2.491,0,0,1-.446,1.789,5.484,5.484,0,0,0-2.97-.871c-1.56,0-2.274.619-2.274,1.7,0,1.189.882,1.731,2.274,2.309l.6.252c2.032.86,3.257,1.759,3.257,3.9,0,2.378-1.512,3.769-4.325,3.769A7.134,7.134,0,0,1,27.047,52.03Z" transform="translate(-1.837 -2.68)" fill="#fff"/>
  <path id="Path_11058" data-name="Path 11058" d="M48.277,39.631V52.246a3.123,3.123,0,0,1-1.964,0V46.569H40.7v5.685a3.122,3.122,0,0,1-1.964,0V39.639a3.073,3.073,0,0,1,1.964,0v5.306h5.608V39.631a3.074,3.074,0,0,1,1.964,0Z" transform="translate(-2.631 -2.68)" fill="#fff"/>
  <path id="Path_11059" data-name="Path 11059" d="M59.089,41.125v4.14h4.828a2.2,2.2,0,0,1,.126.813,2.319,2.319,0,0,1-.126.837H59.089v5.353a2.96,2.96,0,0,1-1.039.144,3.028,3.028,0,0,1-1.039-.144V39.47h7.354a2.542,2.542,0,0,1,0,1.65Z" transform="translate(-3.872 -2.68)" fill="#fff"/>
  <path id="Path_11060" data-name="Path 11060" d="M73.041,39.47c-3.473,0-5.8,2.406-5.8,6.811s2.335,6.814,5.8,6.814,5.786-2.409,5.786-6.814S76.514,39.47,73.041,39.47Zm0,1.67c2.388,0,3.724,1.822,3.724,5.141s-1.319,5.141-3.724,5.141S69.3,49.606,69.3,46.282,70.653,41.14,73.041,41.14Z" transform="translate(-4.567 -2.68)" fill="#fff" fill-rule="evenodd"/>
  <path id="Path_11061" data-name="Path 11061" d="M87.652,39.47c-3.467,0-5.788,2.406-5.788,6.811S84.2,53.1,87.662,53.1s5.783-2.412,5.783-6.814S91.118,39.47,87.652,39.47Zm0,1.67c2.388,0,3.723,1.822,3.723,5.141s-1.321,5.141-3.723,5.141-3.736-1.817-3.736-5.141S85.263,41.14,87.652,41.14Z" transform="translate(-5.559 -2.68)" fill="#fff" fill-rule="evenodd"/>
  <path id="Path_11062" data-name="Path 11062" d="M100.709,52.414c4.523,0,6.723-2.327,6.723-6.848,0-4.367-2.151-6.1-6.535-6.1a26.428,26.428,0,0,0-3.685.242V52.164A23.241,23.241,0,0,0,100.709,52.414Zm.158-11.308c3.34,0,4.572,1.1,4.572,4.58h.01c0,3.383-1.27,5.13-4.485,5.13a10.256,10.256,0,0,1-1.8-.13V41.218A12.4,12.4,0,0,1,100.868,41.106Z" transform="translate(-6.602 -2.68)" fill="#fff" fill-rule="evenodd"/>
  <path id="Path_11063" data-name="Path 11063" d="M125.074,48.688c0,3.21-2.867,3.726-5.51,3.726a20.484,20.484,0,0,1-3.347-.266V39.686a23.835,23.835,0,0,1,3.3-.216c3.535,0,5.072,1.211,5.072,3.341a2.767,2.767,0,0,1-2.111,2.928A2.664,2.664,0,0,1,125.074,48.688Zm-6.944-7.581V45.1h1.032c1.91,0,3.5-.216,3.5-2.177,0-1.432-1.264-1.906-2.951-1.906A14.3,14.3,0,0,0,118.13,41.107Zm1.724,5.552c2.025,0,3.291.327,3.291,2.028,0,1.722-1.229,2.2-3.261,2.2a12.219,12.219,0,0,1-1.754-.13v-4.1Z" transform="translate(-7.892 -2.68)" fill="#fff" fill-rule="evenodd"/>
  <path id="Path_11064" data-name="Path 11064" d="M133.708,39.47c-3.472,0-5.8,2.406-5.8,6.811S130.23,53.1,133.7,53.1s5.791-2.409,5.791-6.814S137.181,39.47,133.708,39.47Zm0,1.67c2.388,0,3.724,1.822,3.724,5.141h.01c0,3.324-1.33,5.141-3.734,5.141s-3.74-1.817-3.74-5.141S131.32,41.14,133.708,41.14Z" transform="translate(-8.686 -2.68)" fill="#fff" fill-rule="evenodd"/>
  <path id="Path_11065" data-name="Path 11065" d="M152.1,52.413c.467,0,1.145-.073,1.281-.269a87.168,87.168,0,0,0-4.528-12.522,5.215,5.215,0,0,0-2.5,0A85.094,85.094,0,0,0,141.8,52.144c.147.194.826.269,1.292.269a1.949,1.949,0,0,0,.778-.132l.042-.149c.247-.862.489-1.712.752-2.538h5.854c.272.876.544,1.768.805,2.687A1.952,1.952,0,0,0,152.1,52.413Zm-4.506-11.2c.883,2.318,1.681,4.516,2.42,6.789l-4.837-.011C145.927,45.718,146.711,43.512,147.595,41.213Z" transform="translate(-9.629 -2.68)" fill="#fff" fill-rule="evenodd"/>
  <path id="Path_11066" data-name="Path 11066" d="M172.339,52.414c4.523,0,6.723-2.327,6.723-6.848,0-4.367-2.151-6.1-6.535-6.1a26.411,26.411,0,0,0-3.684.242V52.164A23.229,23.229,0,0,0,172.339,52.414Zm.159-11.308c3.34,0,4.571,1.1,4.571,4.58,0,3.383-1.269,5.13-4.475,5.13a10.257,10.257,0,0,1-1.8-.13V41.218A12.4,12.4,0,0,1,172.5,41.106Z" transform="translate(-11.466 -2.68)" fill="#fff" fill-rule="evenodd"/>
</svg>
