<svg xmlns="http://www.w3.org/2000/svg" width="40.247" height="40.247" viewBox="0 0 40.247 40.247">
  <path id="earth-europe-light-full" d="M101.551,86.639H98.54a2.108,2.108,0,0,1-1.344-.487l-1.25-1.038a.855.855,0,0,1-.118-1.195,2.2,2.2,0,0,0-1.714-3.569h-.291a.9.9,0,0,1-.9-.9v-.739a1.621,1.621,0,0,0-2.767-1.148l-2.523,2.523a.522.522,0,0,1-.739,0l-.22-.22a2.635,2.635,0,0,0-3.97.283l-.841,1.124a.837.837,0,0,1-1.509-.5v-.126a.963.963,0,0,1,.283-.684l1.47-1.47a2.618,2.618,0,0,0,.762-1.847.885.885,0,0,1,.487-.794l4.654-2.327a2.935,2.935,0,0,0-2.028-5.471l.354-1.4a17.612,17.612,0,0,1,15.218,19.99ZM101,89.154a17.675,17.675,0,0,1-.967,2.515H98.477a3.047,3.047,0,0,1-2.146-.888l-.314-.314a4.455,4.455,0,0,0-3.16-1.3,1.913,1.913,0,0,1-1.266-.472L89.5,86.9a6.311,6.311,0,0,0-4.1-1.517H83.762a6.341,6.341,0,0,0-3.49,1.053l-2.154,1.431a6.274,6.274,0,0,0-2.8,5.235v.252A6.3,6.3,0,0,0,77.159,97.8l1.258,1.258a4.813,4.813,0,0,0,3.4,1.407,2.305,2.305,0,0,1,2.052,1.258,17.611,17.611,0,0,1-.1-35.216l-.542,2.17a1.881,1.881,0,0,0,2.649,2.146l.637-.307a.42.42,0,0,1,.535.141.427.427,0,0,1-.157.613L82.237,73.6a3.39,3.39,0,0,0-1.879,3.042.1.1,0,0,1-.031.071l-1.47,1.47a3.488,3.488,0,0,0-1.022,2.46v.126a3.353,3.353,0,0,0,6.037,2.012l.841-1.124a.112.112,0,0,1,.094-.047.165.165,0,0,1,.086.031l.22.22a3.041,3.041,0,0,0,4.3,0l1.211-1.211a3.436,3.436,0,0,0,2.9,2.2,3.378,3.378,0,0,0,.81,4.19l1.25,1.038a4.591,4.591,0,0,0,2.948,1.069h2.46Zm-2.429,5.031a17.591,17.591,0,0,1-12.09,7.389,4.823,4.823,0,0,0-4.661-3.616,2.3,2.3,0,0,1-1.627-.676l-1.258-1.258a3.773,3.773,0,0,1-1.108-2.665v-.252a3.755,3.755,0,0,1,1.682-3.136l2.154-1.438a3.741,3.741,0,0,1,2.091-.637H85.4a3.744,3.744,0,0,1,2.453.912L89.94,90.6a4.479,4.479,0,0,0,2.908,1.077,1.92,1.92,0,0,1,1.376.574l.314.314a5.558,5.558,0,0,0,3.922,1.627h.094ZM84.123,104.247A20.123,20.123,0,1,0,64,84.123,20.122,20.122,0,0,0,84.123,104.247Zm-5.4-32.331a1.262,1.262,0,0,0-1.777,0l-2.515,2.515a1.256,1.256,0,0,0,1.777,1.777l2.515-2.515A1.262,1.262,0,0,0,78.723,71.916Z" transform="translate(-64 -64)" fill="#e3c64e"/>
</svg>
