<svg xmlns="http://www.w3.org/2000/svg" width="46.532" height="36.551" viewBox="0 0 46.532 36.551">
  <path id="handshake-regular-full" d="M69.209,99.425a1.885,1.885,0,1,0-2.217-3.05l-5.856,4.26-.778-.519a9.4,9.4,0,0,0-5.235-1.588H39.15a9.418,9.418,0,0,0-5.77,1.973L27.7,96.375a1.885,1.885,0,1,0-2.217,3.05l6.917,5.031a1.9,1.9,0,0,0,2.445-.189l.307-.307a5.658,5.658,0,0,1,4-1.659H42.8l-7.208,7.208a3.15,3.15,0,0,0,0,4.449l.063.063a9.427,9.427,0,0,0,13.34,0l2.13-2.13,7.688,7.688a3.15,3.15,0,0,1,0,4.449l-.77.77L55.6,122.362a1.884,1.884,0,0,0-2.665,2.665l2.2,2.2a10.7,10.7,0,0,1-4.528,1.454l-3.812-3.82a1.884,1.884,0,0,0-2.665,2.665l1.179,1.179h-.3a10.691,10.691,0,0,1-7.562-3.129L27.3,115.429a1.884,1.884,0,0,0-2.665,2.665L34.787,128.25a14.464,14.464,0,0,0,10.227,4.237h4.072l.079.079.079-.079h.448a14.464,14.464,0,0,0,10.227-4.237l1.564-1.564c.094-.094.181-.181.267-.275a1.208,1.208,0,0,0,.149-.134l8.167-8.175a1.884,1.884,0,1,0-2.665-2.665l-4.229,4.229a6.95,6.95,0,0,0-1.69-2.759l-9.024-9.024a1.879,1.879,0,0,0-2.665,0l-3.467,3.467a5.655,5.655,0,0,1-7.6.362l7.759-7.758a5.67,5.67,0,0,1,3.978-1.659h4.677a5.639,5.639,0,0,1,3.136.951l1.863,1.258a1.88,1.88,0,0,0,2.154-.047Z" transform="translate(-24.087 -96.014)" fill="#e3c64e"/>
</svg>
