<svg xmlns="http://www.w3.org/2000/svg" width="40.247" height="37.731" viewBox="0 0 40.247 37.731">
  <path id="leaf-regular-full" d="M101.047,64.525a1.888,1.888,0,0,1,3.2,1.36V80.577A18.752,18.752,0,0,1,85.475,99.215,13.974,13.974,0,0,1,72,88.9a13.152,13.152,0,0,0-4.229,9.684v1.258a1.887,1.887,0,0,1-3.773,0V98.586a16.961,16.961,0,0,1,7.578-14.141,13.832,13.832,0,0,1,13.8-12.9A20.8,20.8,0,0,0,97.07,68.086a20.457,20.457,0,0,0,3.985-3.561Zm-.574,5.754a24.438,24.438,0,0,1-15.093,5.039,10.068,10.068,0,0,0-9.621,7.106,16.833,16.833,0,0,1,5.219-.818h6.289a1.887,1.887,0,1,1,0,3.773H80.979A13.129,13.129,0,0,0,75.4,86.622a10.156,10.156,0,0,0,10.077,8.82,14.978,14.978,0,0,0,15-14.865Z" transform="translate(-64 -63.999)" fill="#e3c64e"/>
</svg>
