<svg xmlns="http://www.w3.org/2000/svg" width="33" height="33" viewBox="0 0 33 33">
  <g id="Group_21043" data-name="Group 21043" transform="translate(0.025 -0.463)">
    <g id="Group_21042" data-name="Group 21042">
      <rect id="Rectangle_21070" data-name="Rectangle 21070" width="33" height="33" transform="translate(-0.025 0.463)" fill="#39b54a"/>
      <path id="square-quote-light-full" d="M114.97,97.581a1.579,1.579,0,0,1,1.581,1.581V114.97a1.579,1.579,0,0,1-1.581,1.581H99.162a1.579,1.579,0,0,1-1.581-1.581V99.162a1.579,1.579,0,0,1,1.581-1.581ZM99.162,96A3.165,3.165,0,0,0,96,99.162V114.97a3.165,3.165,0,0,0,3.162,3.162H114.97a3.165,3.165,0,0,0,3.162-3.162V99.162A3.165,3.165,0,0,0,114.97,96Zm7.114,12.568V104.3a1.976,1.976,0,0,0-1.976-1.976h-1.581a1.976,1.976,0,0,0-1.976,1.976v1.581a1.976,1.976,0,0,0,1.976,1.976H104.3a2.1,2.1,0,0,0,.4-.04v.751a1.584,1.584,0,0,1-1.359,1.566l-.731.1a.791.791,0,1,0,.222,1.566l.731-.1a3.161,3.161,0,0,0,2.712-3.132Zm-1.581-2.687a.4.4,0,0,1-.4.4h-1.581a.4.4,0,0,1-.4-.4V104.3a.4.4,0,0,1,.4-.4H104.3a.4.4,0,0,1,.4.4Zm8.695,0V104.3a1.976,1.976,0,0,0-1.976-1.976h-1.581a1.976,1.976,0,0,0-1.976,1.976v1.581a1.976,1.976,0,0,0,1.976,1.976h1.581a2.1,2.1,0,0,0,.4-.04v.751a1.584,1.584,0,0,1-1.359,1.566l-.731.1a.791.791,0,1,0,.222,1.566l.731-.1a3.165,3.165,0,0,0,2.717-3.132Zm-1.581-.79v.79a.4.4,0,0,1-.4.4h-1.581a.4.4,0,0,1-.4-.4V104.3a.4.4,0,0,1,.4-.4h1.581a.4.4,0,0,1,.4.4Z" transform="translate(-90.794 -90.414)" fill="#fff"/>
    </g>
  </g>
</svg>
