<svg xmlns="http://www.w3.org/2000/svg" width="43.247" height="41.316" viewBox="0 0 43.247 41.316">
  <path id="star-regular-full" d="M66.63,32a1.9,1.9,0,0,1,1.682,1.03L74.09,44.365l12.569,2a1.891,1.891,0,0,1,1.045,3.2l-9,9L80.693,71.13a1.889,1.889,0,0,1-2.72,1.981L66.63,67.342l-11.343,5.77a1.889,1.889,0,0,1-2.72-1.981l1.981-12.569-8.993-9a1.891,1.891,0,0,1,1.045-3.2l12.569-2L64.956,33.03A1.9,1.9,0,0,1,66.638,32Zm0,6.037-4.543,8.9A1.89,1.89,0,0,1,60.7,47.941l-9.865,1.572L57.9,56.58a1.885,1.885,0,0,1,.527,1.627l-1.556,9.865,8.906-4.528a1.882,1.882,0,0,1,1.714,0l8.906,4.528-1.556-9.865a1.885,1.885,0,0,1,.527-1.627l7.059-7.067-9.865-1.572a1.89,1.89,0,0,1-1.383-1.006Z" transform="translate(-45.006 -32)" fill="#e3c64e"/>
</svg>
